AFRO AMERICAN HAIR PIE
[img]http://bender1.zikuka.com/img/2010/02/24/34714e3ac38327c7ed48ab49c79046d1/image1468828.jpg[/img]

[img]http://bender1.zikuka.com/img/2010/02/24/34404873a6156c6903a402eedd577de7/image1475750.png[/img]

[img]http://bender1.zikuka.com/img/2010/02/24/fe21669871db4f8cf4a9923ac0d19c31/image1480281.png[/img]

[img]http://bender1.zikuka.com/img/2010/02/24/b5dbb5c1196695e01e13c207ed85e9b6/image1485296.png[/img]

[img]http://bender1.zikuka.com/img/2010/02/24/44015f806916561845ea9d0c1dd24b96/image1490843.png[/img]

[img]http://bender1.zikuka.com/img/2010/02/24/79f5b1b248830130c13135f363fe0f95/image1497359.png[/img]

[img]http://bender1.zikuka.com/img/2010/02/24/75430693c77da6e4c50f410b2cf619fa/image1502765.png[/img]

[img]http://bender1.zikuka.com/img/2010/02/24/25f4739b3808d00039d748b7aa07c235/image1508890.png[/img]

[img]http://bender1.zikuka.com/img/2010/02/24/ec3a86a9e67fcd0c76611fae33e67aec/image1514703.png[/img]

[img]http://bender1.zikuka.com/img/2010/02/24/2d3b10476f2041134ef578414ca5be32/image1520937.png[/img]

[img]http://bender1.zikuka.com/img/2010/02/24/135b7a7075b92b9494117ca6adb7f409/image1527734.png[/img]

[img]http://bender1.zikuka.com/img/2010/02/24/e1f43121809832cfe1f180674d37202e/image1533500.png[/img]

[img]http://bender1.zikuka.com/img/2010/02/24/e564c13249c7bc7c71a8ecc9f211ad98/image1540718.png[/img]

[img]http://bender1.zikuka.com/img/2010/02/24/52a9cc7f8d25912d3707cd97ad63b7e9/image1547109.png[/img]

[img]http://bender1.zikuka.com/img/2010/02/24/bd4cc5bdd1c943c0961005287d654455/image1553343.png[/img]

[img]http://bender1.zikuka.com/img/2010/02/24/60b856fb93ede0b8c2899886c399a18c/image1560328.png[/img]

[img]http://bender1.zikuka.com/img/2010/02/24/ed83fe36ce3642fb0540440ea90bc32f/image1566218.png[/img]

[img]http://bender1.zikuka.com/img/2010/02/24/3c6d77d259a788ca106285f18c50f86a/image1571984.png[/img]

2007
All Sex, Black, Hairy, Big Dick, Fetish
P.A.Morales, Mr.Fiftyonefifty
Desire, Titanic, Gypsy, Mr. Rock, Mr. Briggs, 2 Pop, Kelly Reigh

Witness some of the biggest, bushiest, deepest, darkest, wildest and woolliest pussies ever documented. These full beaver bitches love to get fat cocks to slide between their public curtains and pump away on their deep shag carpets. Their musky hair pies have never seen the business end of a razor!


Heatwave United Video, USA
1:35:33



: DVDRip
 Xvid (544x416, 25 fps, ~907 kbps)
 MP3 (48 kHz, 101 kbps, stereo)
Format                           : AVI
Format/Info                      : Audio Video Interleave
File size                        : 698 MiB
Duration                         : 1h 35mn
Overall bit rate                 : 1 022 Kbps
Writing application              : VirtualDubMod 1.5.4.1 (build 2178/release)
Writing library                  : VirtualDubMod build 2178/release

Video
Format                           : MPEG-4 Visual
Format profile                   : Streaming Video@L1
Format settings, BVOP            : Yes
Format settings, QPel            : No
Format settings, GMC             : No warppoints
Format settings, Matrix          : Custom
Codec ID                         : XVID
Codec ID/Hint                    : XviD
Duration                         : 1h 35mn
Bit rate                         : 907 Kbps
Width                            : 544 pixels
Height                           : 416 pixels
Display aspect ratio             : 4/3
Frame rate                       : 29.970 fps
Resolution                       : 24 bits
Colorimetry                      : 4:2:0
Scan type                        : Progressive
Bits/(Pixel*Frame)               : 0.134
Stream size                      : 620 MiB (89%)
Writing library                  : XviD 1.1.0 (UTC 2005-11-22)

Audio
Format                           : MPEG Audio
Format version                   : Version 1
Format profile                   : Layer 3
Codec ID                         : 55
Codec ID/Hint                    : MP3
Duration                         : 1h 35mn
Bit rate mode                    : Variable
Bit rate                         : 101 Kbps
Minimum bit rate                 : 128 Kbps
Channel(s)                       : 2 channels
Sampling rate                    : 48.0 KHz
Resolution                       : 16 bits
Stream size                      : 69.2 MiB (10%)
Alignment                        : Aligned on interleaves
Interleave, duration             : 24 ms (0.72 video frame)
Interleave, preload duration     : 485 ms
Writing library                  : LAME3.97b
Encoding settings                : ABR
A simple thankyou ensures my seedboxes are given priority on this file!(you will get the file faster)
No thanks=No re-seeds,No help~No worries i can't be arsed either.
Screens are posted for this file,how-ever some sites do not allow all picture hosts(and i do not have time upload pics to a certain host for a specific site).
I will not respond in this thread to any comments from now on(unless you are a member of a private site or are a respected member of a public site).
Thankyou to all the REAL contributors to the sites who keep the faith everyday.
Leechers,Ass-wipes,Zero posters keep on moaning into our deaf ears.
Contact? Old Skool-respected only (you know how);-)
[url]http://www.fhqhosting.com/ui/1ggggg.swf[/url]
[IMG]http://i43.servimg.com/u/f43/12/33/79/02/potpis10.gif[/IMG]
[IMG]http://www.myspaceninja.com/images/gg/glitterhkisses.gif[/IMG]